<?xml version="1.0"?>
<svg xmlns="http://www.w3.org/2000/svg" xmlns:xlink="http://www.w3.org/1999/xlink" version="1.1" id="Capa_1" x="0px" y="0px" viewBox="0 0 504.19 504.19" style="enable-background:new 0 0 504.19 504.19;" xml:space="preserve" width="512px" height="512px" class=""><g><g>
	<path style="fill:#272F3B" d="M26.468,225.627v52.936c0,124.61,101.017,225.627,225.627,225.627s225.627-101.017,225.627-225.627   v-52.936H26.468z" data-original="#B19046" class="" data-old_color="#272f3b"/>
	<circle style="fill:#FBFAFA" cx="252.095" cy="225.627" r="225.627" data-original="#F0C419" class="" data-old_color="#FBFAF9"/>
	<circle style="fill:#272F3B" cx="252.095" cy="225.627" r="173.559" data-original="#B19046" class="" data-old_color="#272f3b"/>
	<ellipse style="fill:#F9F9F9" cx="252.095" cy="238.644" rx="156.203" ry="160.542" data-original="#F3D55B" class="" data-old_color="#F7F7F6"/>
	<path style="fill:#272F3B" d="M259.957,126.238l25.487,49.334c1.323,2.537,3.795,4.275,6.63,4.66l56.554,7.854   c3.316,0.438,6.085,2.744,7.117,5.925c1.032,3.182,0.144,6.673-2.283,8.975l-40.578,37.784c-2.138,1.992-3.119,4.934-2.603,7.81   l9.624,53.604c0.542,3.278-0.81,6.582-3.496,8.539c-2.686,1.957-6.245,2.232-9.2,0.711l-51.079-25.661   c-2.525-1.258-5.494-1.258-8.018,0l-51.079,25.661c-2.955,1.521-6.514,1.245-9.2-0.711c-2.686-1.957-4.038-5.261-3.496-8.539   l9.615-53.595c0.516-2.877-0.465-5.818-2.603-7.81l-40.578-37.784c-2.427-2.302-3.315-5.793-2.283-8.975   c1.032-3.182,3.801-5.487,7.117-5.925l56.554-7.854c2.835-0.386,5.307-2.123,6.63-4.66l25.487-49.334   c1.543-2.896,4.556-4.707,7.838-4.708C255.396,121.537,258.411,123.344,259.957,126.238z" data-original="#FF5364" class="active-path" data-old_color="#272f3b"/>
</g></g> </svg>
